                <svg width="343" height="257" fill="none" xmlns="http://www.w3.org/2000/svg" class="Graph-module-animationBG--MhnKD"><path fill-rule="evenodd" clip-rule="evenodd" d="M39 184h1v22h-1v-22z" fill="#F3F4F5"></path><path fill-rule="evenodd" clip-rule="evenodd" d="M0 103.5h343z" fill="#E0E4E8"></path><path d="M0 103.5h343" stroke="#E0E4E8" stroke-width="0.955" stroke-dasharray="2.86 0.95"></path><path fill-rule="evenodd" clip-rule="evenodd" d="M0 52.5h343z" fill="#E0E4E8"></path><path d="M0 52.5h343" stroke="#E0E4E8" stroke-width="0.955" stroke-dasharray="2.86 0.95"></path><path fill-rule="evenodd" clip-rule="evenodd" d="M0 .5h343z" fill="#E0E4E8"></path><path d="M0 .5h343" stroke="#E0E4E8" stroke-width="0.955" stroke-dasharray="2.86 0.95"></path><path fill-rule="evenodd" clip-rule="evenodd" d="M0 154.5h343z" fill="#E0E4E8"></path><path d="M0 154.5h343" stroke="#E0E4E8" stroke-width="0.955" stroke-dasharray="2.86 0.95"></path><path fill-rule="evenodd" clip-rule="evenodd" d="M0 206.5h343z" fill="#E0E4E8"></path><path d="M0 206.5h343" stroke="#E0E4E8" stroke-width="0.955" stroke-dasharray="2.86 0.95"></path><path fill-rule="evenodd" clip-rule="evenodd" d="M0 256h343z" fill="#E0E4E8"></path><path d="M0 256h343" stroke="#E0E4E8" stroke-width="0.955"></path><g clip-path="url(#animationBG_svg__clip0)" fill="#4A5056"><path opacity="0.8" d="M37.239 233.986l1.253-6.133h1.404L38.016 236h-1.354l-1.55-5.948L33.53 236h-1.36l-1.88-8.147h1.405l1.264 6.122 1.556-6.122H35.7l1.539 6.133zm6.048 2.126c-.862 0-1.561-.271-2.098-.811-.533-.545-.8-1.269-.8-2.171v-.168c0-.604.115-1.143.347-1.617.235-.478.563-.849.984-1.114a2.603 2.603 0 011.41-.397c.825 0 1.46.263 1.908.789.452.526.677 1.27.677 2.232v.549H41.76c.04.5.207.895.498 1.186.294.291.663.436 1.107.436.623 0 1.13-.251 1.522-.755l.733.699a2.46 2.46 0 01-.973.845 3.041 3.041 0 01-1.36.297zm-.162-5.187c-.373 0-.675.131-.907.392-.227.261-.373.625-.436 1.091h2.59v-.101c-.03-.455-.15-.798-.363-1.029-.213-.235-.507-.353-.884-.353zm6.317 5.187c-.862 0-1.561-.271-2.098-.811-.534-.545-.8-1.269-.8-2.171v-.168c0-.604.115-1.143.346-1.617.235-.478.564-.849.985-1.114a2.603 2.603 0 011.41-.397c.825 0 1.46.263 1.908.789.451.526.677 1.27.677 2.232v.549h-3.956c.041.5.207.895.498 1.186.295.291.664.436 1.108.436.623 0 1.13-.251 1.522-.755l.733.699a2.46 2.46 0 01-.974.845 3.042 3.042 0 01-1.36.297zm-.163-5.187c-.373 0-.675.131-.906.392-.227.261-.373.625-.436 1.091h2.59v-.101c-.03-.455-.15-.798-.363-1.029-.213-.235-.508-.353-.885-.353zm5.618 2.479l-.604.621V236h-1.36v-8.594h1.36v4.957l.425-.531 1.673-1.886h1.634l-2.25 2.523 2.49 3.531h-1.572l-1.796-2.596zM65.366 236h-1.354v-6.541l-1.998.683v-1.147l3.178-1.17h.174V236zM120.332 233.986l1.253-6.133h1.405L121.11 236h-1.354l-1.55-5.948-1.584 5.948h-1.359l-1.88-8.147h1.404l1.265 6.122 1.555-6.122h1.186l1.539 6.133zm6.048 2.126c-.861 0-1.561-.271-2.098-.811-.533-.545-.8-1.269-.8-2.171v-.168c0-.604.116-1.143.347-1.617.235-.478.563-.849.985-1.114a2.6 2.6 0 011.41-.397c.824 0 1.46.263 1.908.789.451.526.677 1.27.677 2.232v.549h-3.956c.041.5.207.895.498 1.186.295.291.664.436 1.108.436.623 0 1.13-.251 1.522-.755l.733.699a2.462 2.462 0 01-.974.845 3.042 3.042 0 01-1.36.297zm-.162-5.187c-.373 0-.675.131-.906.392-.228.261-.373.625-.437 1.091h2.591v-.101c-.03-.455-.151-.798-.364-1.029-.212-.235-.507-.353-.884-.353zm6.317 5.187c-.862 0-1.561-.271-2.098-.811-.534-.545-.8-1.269-.8-2.171v-.168c0-.604.115-1.143.347-1.617.235-.478.563-.849.984-1.114a2.605 2.605 0 011.41-.397c.825 0 1.461.263 1.908.789.452.526.677 1.27.677 2.232v.549h-3.955c.041.5.207.895.498 1.186.294.291.664.436 1.107.436.623 0 1.131-.251 1.522-.755l.733.699a2.46 2.46 0 01-.973.845 3.042 3.042 0 01-1.36.297zm-.162-5.187c-.373 0-.675.131-.907.392-.227.261-.373.625-.436 1.091h2.591v-.101c-.03-.455-.152-.798-.364-1.029-.213-.235-.507-.353-.884-.353zm5.617 2.479l-.604.621V236h-1.36v-8.594h1.36v4.957l.425-.531 1.673-1.886h1.634l-2.249 2.523 2.49 3.531h-1.573l-1.796-2.596zM150.255 236h-5.478v-.934l2.714-2.96c.392-.437.67-.8.834-1.091.168-.295.251-.59.251-.884 0-.388-.11-.702-.33-.94-.216-.239-.509-.358-.878-.358-.44 0-.782.134-1.024.402-.242.269-.364.636-.364 1.103h-1.359c0-.496.112-.942.335-1.338.228-.399.551-.708.968-.928.422-.22.907-.33 1.455-.33.791 0 1.414.199 1.869.598.459.396.688.944.688 1.645 0 .407-.116.834-.347 1.281-.227.444-.602.95-1.124 1.517l-1.992 2.132h3.782V236zM203.332 233.986l1.253-6.133h1.405L204.11 236h-1.354l-1.55-5.948-1.584 5.948h-1.359l-1.88-8.147h1.404l1.265 6.122 1.555-6.122h1.186l1.539 6.133zm6.048 2.126c-.861 0-1.561-.271-2.098-.811-.533-.545-.8-1.269-.8-2.171v-.168c0-.604.116-1.143.347-1.617.235-.478.563-.849.985-1.114a2.6 2.6 0 011.41-.397c.824 0 1.46.263 1.908.789.451.526.677 1.27.677 2.232v.549h-3.956c.041.5.207.895.498 1.186.295.291.664.436 1.108.436.623 0 1.13-.251 1.522-.755l.733.699a2.462 2.462 0 01-.974.845 3.042 3.042 0 01-1.36.297zm-.162-5.187c-.373 0-.675.131-.906.392-.228.261-.373.625-.437 1.091h2.591v-.101c-.03-.455-.151-.798-.364-1.029-.212-.235-.507-.353-.884-.353zm6.317 5.187c-.862 0-1.561-.271-2.098-.811-.534-.545-.8-1.269-.8-2.171v-.168c0-.604.115-1.143.347-1.617.235-.478.563-.849.984-1.114a2.605 2.605 0 011.41-.397c.825 0 1.461.263 1.908.789.452.526.677 1.27.677 2.232v.549h-3.955c.041.5.207.895.498 1.186.294.291.664.436 1.107.436.623 0 1.131-.251 1.522-.755l.733.699a2.46 2.46 0 01-.973.845 3.042 3.042 0 01-1.36.297zm-.162-5.187c-.373 0-.675.131-.907.392-.227.261-.373.625-.436 1.091h2.591v-.101c-.03-.455-.152-.798-.364-1.029-.213-.235-.507-.353-.884-.353zm5.617 2.479l-.604.621V236h-1.36v-8.594h1.36v4.957l.425-.531 1.673-1.886h1.634l-2.249 2.523 2.49 3.531h-1.573l-1.796-2.596zm8.36-2.098h.828c.417-.004.748-.112.99-.325.246-.213.369-.52.369-.923 0-.388-.102-.688-.307-.901-.202-.216-.512-.324-.929-.324-.366 0-.666.106-.901.318a1.05 1.05 0 00-.353.823h-1.359c0-.418.11-.798.33-1.141a2.24 2.24 0 01.929-.801c.399-.194.845-.29 1.337-.29.813 0 1.451.205 1.913.615.467.407.7.974.7 1.701 0 .365-.118.71-.353 1.035a2.175 2.175 0 01-.9.727c.447.153.787.394 1.018.722.235.328.352.72.352 1.175 0 .731-.251 1.313-.755 1.746-.5.433-1.158.649-1.975.649-.783 0-1.425-.209-1.925-.627-.5-.418-.75-.973-.75-1.667h1.36c0 .358.119.649.358.873.243.224.567.335.974.335.421 0 .753-.111.996-.335.242-.224.363-.549.363-.974 0-.429-.126-.759-.38-.99-.254-.231-.631-.347-1.13-.347h-.8v-1.074zM286.332 233.986l1.253-6.133h1.405L287.11 236h-1.354l-1.55-5.948-1.584 5.948h-1.359l-1.88-8.147h1.404l1.265 6.122 1.555-6.122h1.186l1.539 6.133zm6.048 2.126c-.861 0-1.561-.271-2.098-.811-.533-.545-.8-1.269-.8-2.171v-.168c0-.604.116-1.143.347-1.617.235-.478.563-.849.985-1.114a2.6 2.6 0 011.41-.397c.824 0 1.46.263 1.908.789.451.526.677 1.27.677 2.232v.549h-3.956c.041.5.207.895.498 1.186.295.291.664.436 1.108.436.623 0 1.13-.251 1.522-.755l.733.699a2.462 2.462 0 01-.974.845 3.042 3.042 0 01-1.36.297zm-.162-5.187c-.373 0-.675.131-.906.392-.228.261-.373.625-.437 1.091h2.591v-.101c-.03-.455-.151-.798-.364-1.029-.212-.235-.507-.353-.884-.353zm6.317 5.187c-.862 0-1.561-.271-2.098-.811-.534-.545-.8-1.269-.8-2.171v-.168c0-.604.115-1.143.347-1.617.235-.478.563-.849.984-1.114a2.605 2.605 0 011.41-.397c.825 0 1.461.263 1.908.789.452.526.677 1.27.677 2.232v.549h-3.955c.041.5.207.895.498 1.186.294.291.664.436 1.107.436.623 0 1.131-.251 1.522-.755l.733.699a2.46 2.46 0 01-.973.845 3.042 3.042 0 01-1.36.297zm-.162-5.187c-.373 0-.675.131-.907.392-.227.261-.373.625-.436 1.091h2.591v-.101c-.03-.455-.152-.798-.364-1.029-.213-.235-.507-.353-.884-.353zm5.617 2.479l-.604.621V236h-1.36v-8.594h1.36v4.957l.425-.531 1.673-1.886h1.634l-2.249 2.523 2.49 3.531h-1.573l-1.796-2.596zm11.387-.308h1.012v1.091h-1.012V236h-1.36v-1.813h-3.519l-.04-.828 3.514-5.506h1.405v5.243zm-3.492 0h2.132v-3.402l-.101.179-2.031 3.223z"></path></g><defs><clipPath id="animationBG_svg__clip0"><path fill="#fff" transform="translate(26 226)" d="M0 0h291v13H0z"></path></clipPath></defs></svg>
