<svg id="_001-height" data-name="001-height" xmlns="http://www.w3.org/2000/svg" width="40" height="42" viewBox="0 0 47.118 58.636"><g id="Group_86" data-name="Group 86" transform="translate(14.659 6.283)"><g id="Group_85" data-name="Group 85"><path id="Path_69" data-name="Path 69" d="M193.992,65.329h-.565a6.282,6.282,0,1,0-9.34,0h-.566a5.241,5.241,0,0,0-5.235,5.235V85.223a1.047,1.047,0,0,0,1.047,1.047h3.141v19.894a1.047,1.047,0,0,0,1.047,1.047H189.8a5.241,5.241,0,0,0,5.235-5.235V86.27h3.141a1.047,1.047,0,0,0,1.047-1.047V70.564A5.241,5.241,0,0,0,193.992,65.329Zm-5.235-8.377a4.188,4.188,0,1,1-4.188,4.188A4.192,4.192,0,0,1,188.757,56.952Zm.642,10.471-.642,1.925-.642-1.925Zm7.735,16.753h-2.094V70.564h-2.094v31.412a3.145,3.145,0,0,1-3.141,3.141V86.27h-2.094v18.847h-3.141V70.564h-2.094V84.176H180.38V70.564a3.145,3.145,0,0,1,3.141-3.141h2.387l1.855,5.566a1.046,1.046,0,0,0,1.985,0l1.855-5.566h2.387a3.145,3.145,0,0,1,3.141,3.141V84.176Z" transform="translate(-178.286 -54.858)" fill="#1590e0"></path></g></g><g id="Group_88" data-name="Group 88" transform="translate(0)"><g id="Group_87" data-name="Group 87"><path id="Path_70" data-name="Path 70" d="M61.8,0H51.333a1.047,1.047,0,0,0-1.047,1.047V57.589a1.047,1.047,0,0,0,1.047,1.047H61.8a1.047,1.047,0,0,0,1.047-1.047V1.047A1.047,1.047,0,0,0,61.8,0ZM60.757,6.282H58.662V8.377h2.094v4.188H56.568v2.094h4.188v4.188H58.662v2.094h2.094V25.13H56.568v2.094h4.188v4.188H58.662v2.094h2.094v4.188H56.568v2.094h4.188v4.188H58.662v2.094h2.094v4.188H56.568v2.094h4.188v4.188H52.38V2.094h8.377V6.282Z" transform="translate(-50.286)" fill="#1590e0"></path></g></g><g id="Group_90" data-name="Group 90" transform="translate(14.659 2.094)"><g id="Group_89" data-name="Group 89"><rect id="Rectangle_133" data-name="Rectangle 133" width="2.094" height="2.094" fill="#1590e0"></rect></g></g><g id="Group_92" data-name="Group 92" transform="translate(18.847 2.094)"><g id="Group_91" data-name="Group 91"><rect id="Rectangle_134" data-name="Rectangle 134" width="2.094" height="2.094" fill="#1590e0"></rect></g></g><g id="Group_94" data-name="Group 94" transform="translate(23.036 2.094)"><g id="Group_93" data-name="Group 93"><rect id="Rectangle_135" data-name="Rectangle 135" width="2.094" height="2.094" fill="#1590e0"></rect></g></g><g id="Group_96" data-name="Group 96" transform="translate(27.224 2.094)"><g id="Group_95" data-name="Group 95"><rect id="Rectangle_136" data-name="Rectangle 136" width="2.094" height="2.094" fill="#1590e0"></rect></g></g><g id="Group_98" data-name="Group 98" transform="translate(31.412 2.094)"><g id="Group_97" data-name="Group 97"><rect id="Rectangle_137" data-name="Rectangle 137" width="2.094" height="2.094" fill="#1590e0"></rect></g></g><g id="Group_100" data-name="Group 100" transform="translate(35.6 2.094)"><g id="Group_99" data-name="Group 99"><rect id="Rectangle_138" data-name="Rectangle 138" width="2.094" height="2.094" fill="#1590e0"></rect></g></g><g id="Group_102" data-name="Group 102" transform="translate(32.459 56.542)"><g id="Group_101" data-name="Group 101"><rect id="Rectangle_139" data-name="Rectangle 139" width="2.094" height="2.094" fill="#1590e0"></rect></g></g><g id="Group_104" data-name="Group 104" transform="translate(36.647 56.542)"><g id="Group_103" data-name="Group 103"><rect id="Rectangle_140" data-name="Rectangle 140" width="2.094" height="2.094" fill="#1590e0"></rect></g></g><g id="Group_106" data-name="Group 106" transform="translate(40.836 56.542)"><g id="Group_105" data-name="Group 105"><rect id="Rectangle_141" data-name="Rectangle 141" width="2.094" height="2.094" fill="#1590e0"></rect></g></g><g id="Group_108" data-name="Group 108" transform="translate(45.024 56.542)"><g id="Group_107" data-name="Group 107"><rect id="Rectangle_142" data-name="Rectangle 142" width="2.094" height="2.094" fill="#1590e0"></rect></g></g></svg>