<svg width="65" height="20" viewBox="0 0 65 20" fill="none" xmlns="http://www.w3.org/2000/svg">
<path d="M24.5043 9.88929C23.6903 9.88929 22.9525 10.1905 22.431 10.7994H22.4056V6.68095H20.7012V16.5482H22.4056V13.2351C22.4056 12.0565 22.9843 11.4738 23.8938 11.4738C24.7079 11.4738 25.134 11.8667 25.134 13.0583V16.5548H26.8447V12.6131C26.8447 10.6161 25.8717 9.88929 24.498 9.88929H24.5043Z" fill="#999C9F"/>
<path d="M30.4571 16.6595C31.3093 16.6595 31.7291 16.4827 32.1361 16.2536L31.6973 14.8524C31.4111 15.003 31.0931 15.0815 30.8959 15.0815C30.4953 15.0815 30.3363 14.8065 30.3363 14.2435V11.4607H32.0661V10.0071H30.3363V7.67619L28.6319 7.86607V10.0006H27.8814V11.4542H28.6319V14.4792C28.6319 15.9524 29.3569 16.6595 30.4508 16.6595H30.4571Z" fill="#999C9F"/>
<path d="M35.4432 16.6595C36.2954 16.6595 36.7152 16.4827 37.1222 16.2536L36.6834 14.8524C36.3972 15.003 36.0792 15.0815 35.882 15.0815C35.4814 15.0815 35.3224 14.8065 35.3224 14.2435V11.4607H37.0522V10.0071H35.3224V7.67619L33.6179 7.86607V10.0006H32.8675V11.4542H33.6179V14.4792C33.6179 15.9524 34.343 16.6595 35.4368 16.6595H35.4432Z" fill="#999C9F"/>
<path d="M41.9747 9.88929C41.1925 9.88929 40.5183 10.1905 40.0477 10.7601H40.0223V10.0006H38.3178V19.2H40.0223V15.8214H40.0477C40.4865 16.3649 41.1225 16.6595 41.9302 16.6595C43.6855 16.6595 44.9702 15.3238 44.9702 13.3006C44.9702 11.3101 43.6792 9.89583 41.9747 9.89583V9.88929ZM41.6122 15.0946C40.6773 15.0946 39.9587 14.381 39.9587 13.3071C39.9587 12.2595 40.6392 11.4738 41.6122 11.4738C42.5217 11.4738 43.2403 12.1875 43.2403 13.3071C43.2403 14.3679 42.5726 15.0946 41.6122 15.0946Z" fill="#999C9F"/>
<path d="M48.4172 16.6595C50.0835 16.6595 50.8848 15.7887 50.8848 14.6298C50.8848 13.3399 50.0771 13.0321 48.697 12.5083C48.0738 12.2661 47.7431 12.0762 47.7431 11.8012C47.7431 11.4607 48.0865 11.3101 48.3663 11.3101C48.8306 11.3101 49.3903 11.5262 49.88 12.0042L50.7067 10.7208C49.9817 10.1446 49.2631 9.89583 48.3791 9.89583C47.0817 9.89583 46.0895 10.675 46.0895 11.8601C46.0895 13.1238 46.999 13.6345 48.0483 13.9881C48.8751 14.2631 49.2058 14.4137 49.2058 14.7149C49.2058 15.0292 48.9196 15.2583 48.4236 15.2583C47.7304 15.2583 47.1834 14.9899 46.6619 14.4923L45.8351 15.7036C46.5284 16.3256 47.3933 16.6595 48.4109 16.6595H48.4172Z" fill="#999C9F"/>
<path d="M53.0726 12.0435C53.645 12.0435 54.122 11.5589 54.122 10.9762C54.122 10.3804 53.645 9.89583 53.0726 9.89583C52.4811 9.89583 52.0105 10.3804 52.0105 10.9762C52.0105 11.5589 52.4811 12.0435 53.0726 12.0435ZM53.0726 16.6595C53.645 16.6595 54.122 16.1815 54.122 15.5988C54.122 15.003 53.645 14.5185 53.0726 14.5185C52.4811 14.5185 52.0105 15.003 52.0105 15.5988C52.0105 16.1815 52.4811 16.6595 53.0726 16.6595Z" fill="#999C9F"/>
<path d="M55.7246 18.0476L60.6853 6.60893L59.426 6L54.459 17.4452L55.7246 18.0476Z" fill="#999C9F"/>
<path d="M59.5405 18.0476L64.5012 6.60893L63.2419 6L58.2749 17.4452L59.5405 18.0476Z" fill="#999C9F"/>
<mask id="mask0_11532_18292" style="mask-type:alpha" maskUnits="userSpaceOnUse" x="0" y="0" width="16" height="20">
<path d="M14.0136 6.42916C14.2592 6.42662 14.5029 6.47186 14.7304 6.56225C14.9579 6.65264 15.1648 6.78637 15.3389 6.95565C15.5187 7.11744 15.6616 7.31444 15.7584 7.53381C15.8551 7.75318 15.9034 7.98999 15.9002 8.22884V17.401C15.9034 17.6398 15.8551 17.8766 15.7584 18.096C15.6616 18.3154 15.5187 18.5124 15.3389 18.6742C15.1647 18.8433 14.9578 18.9769 14.7303 19.0672C14.5028 19.1574 14.2591 19.2025 14.0136 19.1999H2.78719C2.54165 19.2025 2.29802 19.1574 2.07048 19.0672C1.84295 18.9769 1.63606 18.8433 1.46186 18.6742C1.28205 18.5124 1.13914 18.3154 1.04242 18.096C0.94571 17.8766 0.897365 17.6398 0.900537 17.401V8.22808C0.897474 7.98936 0.945873 7.75269 1.04258 7.53346C1.13929 7.31423 1.28215 7.11736 1.46186 6.95565C1.636 6.78637 1.84286 6.65264 2.07039 6.56225C2.29793 6.47186 2.54159 6.42662 2.78719 6.42916H3.70792V4.58604C3.70162 3.77774 3.91871 2.98276 4.33628 2.28501C4.74516 1.59126 5.33375 1.01497 6.04285 0.614095C6.76035 0.211721 7.57316 0 8.40039 0C9.22762 0 10.0404 0.211721 10.7579 0.614095C11.467 1.01497 12.0556 1.59126 12.4645 2.28501C12.8824 2.98375 13.0995 3.77979 13.0929 4.58909V6.42916H14.0136ZM11.2966 6.42916V4.58604C11.2984 4.0922 11.1637 3.60706 10.9068 3.1818C10.6511 2.74894 10.2832 2.38946 9.84033 2.13948C9.40519 1.88811 8.90898 1.75551 8.40351 1.75551C7.89804 1.75551 7.40183 1.88811 6.96669 2.13948C6.52263 2.38904 6.1537 2.74855 5.89706 3.1818C5.64015 3.60706 5.50548 4.0922 5.50726 4.58604V6.42916H11.2966Z" fill="#77BC1F"/>
</mask>
<g mask="url(#mask0_11532_18292)">
<rect x="8.09961" width="7.8" height="19.2" fill="#727477"/>
<rect x="0.900391" width="7.2" height="19.2" fill="#999C9F"/>
</g>
</svg>
