<svg id="_001-body-scale" data-name="001-body-scale" xmlns="http://www.w3.org/2000/svg" width="40" height="40" viewBox="0 0 54.454 54.454"><g id="Group_68" data-name="Group 68" transform="translate(0 0)"><path id="Path_29" data-name="Path 29" d="M63.4,136.248h0l19.578-.009a1.378,1.378,0,0,0,1.377-1.377V97.417a1.377,1.377,0,0,0-1.377-1.374h-7.4a.8.8,0,0,0-.8.8V97a13.616,13.616,0,1,1-27.232,0c0-.018,0-.037,0-.056,0-.034,0-.068,0-.1a.8.8,0,0,0-.8-.8h-7.4a1.377,1.377,0,0,0-1.377,1.374v37.446a1.378,1.378,0,0,0,1.376,1.377l20.359.009,0-.009a.8.8,0,0,0,0-1.6H39.579V97.638h6.392a15.212,15.212,0,0,0,30.4,0H82.76v37.006l-19.36.009a.8.8,0,0,0,0,1.6Z" transform="translate(-33.944 -85.828)" fill="#1590e0"></path><path id="Path_30" data-name="Path 30" d="M232.141,56.321a2.708,2.708,0,0,0-1.306-.148l-1.068-2.331a.8.8,0,1,0-1.45.664l1.069,2.333a2.718,2.718,0,0,0,2.942,4.5,2.719,2.719,0,0,0-.186-5.02Zm.106,2.942a1.124,1.124,0,0,1-2.074.076,1.123,1.123,0,0,1,1.412-1.522,1.124,1.124,0,0,1,.662,1.446Z" transform="translate(-203.969 -47.7)" fill="#1590e0"></path><path id="Path_31" data-name="Path 31" d="M53.656,28.712a.8.8,0,0,0,.8-.8V10.8a4.638,4.638,0,0,0-4.633-4.633H37.214a11.223,11.223,0,0,0-2.022-2.824.8.8,0,0,0-.068-.078.805.805,0,0,0-.078-.067A11.15,11.15,0,0,0,19.413,3.2a.722.722,0,0,0-.16.16,11.222,11.222,0,0,0-2.014,2.816H4.633A4.638,4.638,0,0,0,0,10.8V49.821a4.638,4.638,0,0,0,4.633,4.633H49.822a4.638,4.638,0,0,0,4.633-4.633V31.6a.8.8,0,0,0-1.6,0V49.821a3.041,3.041,0,0,1-3.037,3.037H4.633A3.041,3.041,0,0,1,1.6,49.821V10.8A3.041,3.041,0,0,1,4.632,7.767H16.587a11.16,11.16,0,0,0,2.672,11.224.722.722,0,0,0,.144.144,11.148,11.148,0,0,0,15.652-.006.784.784,0,0,0,.069-.061A.8.8,0,0,0,35.185,19,11.158,11.158,0,0,0,37.866,7.767H49.821A3.041,3.041,0,0,1,52.859,10.8v17.11a.8.8,0,0,0,.8.8ZM34.534,17.35l-.784-.784a.8.8,0,0,0-1.128,1.128l.784.784a9.534,9.534,0,0,1-5.383,2.234V19.6a.8.8,0,0,0-1.6,0v1.116a9.529,9.529,0,0,1-5.381-2.235l.785-.783A.8.8,0,0,0,20.7,16.565l-.786.784a9.537,9.537,0,0,1-2.233-5.383H18.8a.8.8,0,0,0,0-1.6H17.686a9.533,9.533,0,0,1,2.233-5.381l.785.785a.8.8,0,0,0,1.128-1.128l-.785-.785a9.531,9.531,0,0,1,5.381-2.233V2.742a.8.8,0,0,0,1.6,0V1.629a9.535,9.535,0,0,1,5.382,2.233l-.784.786a.8.8,0,0,0,1.129,1.127l.783-.785a9.531,9.531,0,0,1,2.235,5.381H35.652a.8.8,0,1,0,0,1.6h1.116a9.536,9.536,0,0,1-2.234,5.383Z" transform="translate(0 0)" fill="#1590e0"></path><path id="Path_78" data-name="Path 78" d="M12.7,28.627l6.8,11,22.8-12.3" transform="translate(1 2)" fill="none" stroke="#1590e0" stroke-linecap="round" stroke-width="2"></path></g></svg>