<svg width="25" height="24" fill="none" xmlns="http://www.w3.org/2000/svg"><path fill-rule="evenodd" clip-rule="evenodd" d="M6.875 3.5h11.25A3.374 3.374 0 0121.5 6.875v11.25a3.374 3.374 0 01-3.375 3.375H6.875A3.374 3.374 0 013.5 18.125V6.875A3.374 3.374 0 016.875 3.5zm8.834 9c.342 0 .665-.155.879-.422l2.118-2.647c.32-.401.325-.965-.05-1.316-.938-.88-2.99-2.365-6.156-2.365-3.166 0-5.218 1.485-6.157 2.365-.374.351-.37.915-.049 1.316l2.118 2.647c.214.267.537.422.879.422h6.418z" fill="#FF3464"></path><path d="M14.912 8.85L14 12.5h-3l3.745-3.745c.071-.071.192-.003.167.095z" fill="#FF3464"></path></svg>