<?xml version="1.0" encoding="utf-8"?>
<!-- Generator: Adobe Illustrator 22.0.1, SVG Export Plug-In . SVG Version: 6.00 Build 0)  -->
<svg version="1.1" xmlns="http://www.w3.org/2000/svg" xmlns:xlink="http://www.w3.org/1999/xlink" x="0px" y="0px"
	 viewBox="0 0 66.1 21.6" style="enable-background:new 0 0 66.1 21.6;" xml:space="preserve">
<style type="text/css">
	.st0{fill:#5E5F61;}
	.st1{font-family:'GillSans-SemiBold';}
	.st2{font-size:5.5119px;}
	.st3{fill:url(#SVGID_1_);}
	.st4{fill:url(#SVGID_2_);}
	.st5{fill:url(#SVGID_3_);}
	.st6{fill:url(#SVGID_4_);}
	.st7{fill:url(#SVGID_5_);}
	.st8{fill:url(#SVGID_6_);}
	.st9{fill:url(#SVGID_7_);}
	.st10{fill:url(#SVGID_8_);}
	.st11{fill:url(#SVGID_9_);}
	.st12{fill:url(#SVGID_10_);}
	.st13{fill:url(#SVGID_11_);}
	.st14{fill:url(#SVGID_12_);}
</style>
<g id="Layer_1">
</g>
<g id="Layer_2">
</g>
<g id="Layer_3">
	<g>
		<text transform="matrix(1 0 0 1 21.3635 20.2173)" class="st0 st1 st2">Mind, Body &amp; Soul</text>
		<g>
			<linearGradient id="SVGID_1_" gradientUnits="userSpaceOnUse" x1="4.4472" y1="1.6007" x2="11.8912" y2="13.0634">
				<stop  offset="0" style="stop-color:#418091"/>
				<stop  offset="0.2605" style="stop-color:#2D6A7B"/>
				<stop  offset="0.7421" style="stop-color:#0C4656"/>
				<stop  offset="0.998" style="stop-color:#003848"/>
			</linearGradient>
			<path class="st3" d="M9.8,0C4.4,0,0,4.4,0,9.8c0,3.4,1.7,6.4,4.3,8.1c1.5-1.4,2.8-3.4,2.8-5.6c0-4-5.3-6.7-5.3-6.7S4.7,5,6.6,6.5
				C8.5,8,8.7,8.5,9.9,8.5c1.7,0,2.1-1.9,4.4-3.4c1.3-0.8,2-1.2,3.2-1.5C15.6,1.4,12.9,0,9.8,0z M9.8,7.6c-1.1,0-2.1-0.9-2.1-2.1
				s0.9-2.1,2.1-2.1s2.1,0.9,2.1,2.1S11,7.6,9.8,7.6z"/>
			<linearGradient id="SVGID_2_" gradientUnits="userSpaceOnUse" x1="11.1301" y1="11.6331" x2="15.77" y2="17.2899">
				<stop  offset="0" style="stop-color:#FF926F"/>
				<stop  offset="0.128" style="stop-color:#FF8C67"/>
				<stop  offset="0.2286" style="stop-color:#FF845D"/>
				<stop  offset="0.316" style="stop-color:#F9784F"/>
				<stop  offset="0.4804" style="stop-color:#EB582B"/>
				<stop  offset="0.5268" style="stop-color:#E64E1F"/>
				<stop  offset="0.679" style="stop-color:#C9441B"/>
				<stop  offset="0.998" style="stop-color:#812C11"/>
			</linearGradient>
			<path class="st4" d="M21.5,3.2c-1.1-0.1-2.4,0.5-3.5,1.1c0,0,0,0,0,0c-2,1-4.3,2.9-6,6.3c-1.6,3.3-2.9,5.4-4.4,6.9
				c-0.4,0.3-2.9,2.5-6.3,3.1c0,0,2.9,0.6,5.7-1.3c0,0,0,0,0,0c0.9,0.3,1.9,0.4,2.9,0.4c5.4,0,9.8-4.4,9.8-9.8
				c0-1.7-0.4-3.3-1.2-4.7C19.6,3.6,21.5,3.2,21.5,3.2z"/>
		</g>
		<linearGradient id="SVGID_3_" gradientUnits="userSpaceOnUse" x1="43.9985" y1="1.8863" x2="46.7104" y2="12.1406">
			<stop  offset="0" style="stop-color:#418091"/>
			<stop  offset="0.2605" style="stop-color:#2D6A7B"/>
			<stop  offset="0.7421" style="stop-color:#0C4656"/>
			<stop  offset="0.998" style="stop-color:#003848"/>
		</linearGradient>
		<path class="st5" d="M46,7c0.3-0.8,0.5-0.9,1.2-1V5.7h-2.8V6c0.9,0.1,1.1,0.2,1.1,0.6c0,0.2,0,0.3-0.3,0.9l-1.2,3.1l0.7-0.2L46,7z
			"/>
		<linearGradient id="SVGID_4_" gradientUnits="userSpaceOnUse" x1="42.2754" y1="12.5425" x2="49.2246" y2="21.9493">
			<stop  offset="0" style="stop-color:#FF926F"/>
			<stop  offset="0.128" style="stop-color:#FF8C67"/>
			<stop  offset="0.2286" style="stop-color:#FF845D"/>
			<stop  offset="0.316" style="stop-color:#F9784F"/>
			<stop  offset="0.4804" style="stop-color:#EB582B"/>
			<stop  offset="0.5268" style="stop-color:#E64E1F"/>
			<stop  offset="0.679" style="stop-color:#C9441B"/>
			<stop  offset="0.998" style="stop-color:#812C11"/>
		</linearGradient>
		<polygon class="st6" points="42.7,14.4 43.1,14.4 43.6,13.1 42.3,13.5 		"/>
		<linearGradient id="SVGID_5_" gradientUnits="userSpaceOnUse" x1="49.5744" y1="7.1504" x2="56.5236" y2="16.5573">
			<stop  offset="0" style="stop-color:#FF926F"/>
			<stop  offset="0.128" style="stop-color:#FF8C67"/>
			<stop  offset="0.2286" style="stop-color:#FF845D"/>
			<stop  offset="0.316" style="stop-color:#F9784F"/>
			<stop  offset="0.4804" style="stop-color:#EB582B"/>
			<stop  offset="0.5268" style="stop-color:#E64E1F"/>
			<stop  offset="0.679" style="stop-color:#C9441B"/>
			<stop  offset="0.998" style="stop-color:#812C11"/>
		</linearGradient>
		<path class="st7" d="M54.2,10.1c0,2.6-0.8,4-2.3,4c-1.3,0-2.1-1-2.3-3l-2,0.7c0.7,1.6,2.2,2.7,4.3,2.7c2.7,0,4.6-1.8,4.6-4.5
			c0-0.4,0-0.8-0.1-1.1l-2.2,0.7C54.2,9.7,54.2,9.9,54.2,10.1z"/>
		<linearGradient id="SVGID_6_" gradientUnits="userSpaceOnUse" x1="53.1557" y1="4.5048" x2="60.1049" y2="13.9117">
			<stop  offset="0" style="stop-color:#FF926F"/>
			<stop  offset="0.128" style="stop-color:#FF8C67"/>
			<stop  offset="0.2286" style="stop-color:#FF845D"/>
			<stop  offset="0.316" style="stop-color:#F9784F"/>
			<stop  offset="0.4804" style="stop-color:#EB582B"/>
			<stop  offset="0.5268" style="stop-color:#E64E1F"/>
			<stop  offset="0.679" style="stop-color:#C9441B"/>
			<stop  offset="0.998" style="stop-color:#812C11"/>
		</linearGradient>
		<path class="st8" d="M58.3,12.8c0,0.8-0.2,0.9-1.1,1.1v0.3h2.9v-0.3c-1-0.1-1.2-0.4-1.2-1.3V8l-0.6,0.2V12.8z"/>
		<g>
			<linearGradient id="SVGID_7_" gradientUnits="userSpaceOnUse" x1="24.1685" y1="10.8632" x2="24.3495" y2="16.0469">
				<stop  offset="0" style="stop-color:#418091"/>
				<stop  offset="0.3643" style="stop-color:#286475"/>
				<stop  offset="0.998" style="stop-color:#003848"/>
			</linearGradient>
			<path class="st9" d="M26.6,13.2c-0.5,0.4-1.4,0.5-2.6,0.5h-1.1l4.9-7.9V5.7H21l-0.3,2.6H21c0.6-1.8,1.1-2.1,3.1-2.1l1.1,0l-5,7.9
				v0.2h7.6l0.4-3.1h-0.3C27.5,12.2,27.3,12.7,26.6,13.2z"/>
			<linearGradient id="SVGID_8_" gradientUnits="userSpaceOnUse" x1="33.6261" y1="8.1086" x2="33.8509" y2="14.5472">
				<stop  offset="0" style="stop-color:#418091"/>
				<stop  offset="0.3643" style="stop-color:#286475"/>
				<stop  offset="0.998" style="stop-color:#003848"/>
			</linearGradient>
			<path class="st10" d="M31.4,10c0-2.7,0.8-4.1,2.3-4.1c1.5,0,2.4,1.5,2.4,4.2c0,1.5-0.3,2.5-0.7,3.2l2.3-0.7
				c0.5-0.7,0.8-1.6,0.8-2.6c0-2.6-1.9-4.5-4.6-4.5c-2.7,0-4.7,1.8-4.7,4.5c0,2.1,1.2,3.7,3.1,4.2l0.9-0.3
				C32,13.6,31.4,12.3,31.4,10z"/>
			<linearGradient id="SVGID_9_" gradientUnits="userSpaceOnUse" x1="40.6926" y1="6.0242" x2="40.8838" y2="11.4988">
				<stop  offset="0" style="stop-color:#418091"/>
				<stop  offset="0.3643" style="stop-color:#286475"/>
				<stop  offset="0.998" style="stop-color:#003848"/>
			</linearGradient>
			<path class="st11" d="M41.8,7.4c-0.3-0.6-0.3-0.7-0.3-0.9c0-0.3,0.2-0.4,0.7-0.5l0.4,0V5.7h-4.4V6c0.7,0.1,0.8,0.2,1.1,0.9l2,4.5
				l1.9-0.6L41.8,7.4z"/>
			<linearGradient id="SVGID_10_" gradientUnits="userSpaceOnUse" x1="51.0842" y1="0.7177" x2="51.3709" y2="8.9289">
				<stop  offset="0" style="stop-color:#418091"/>
				<stop  offset="0.3643" style="stop-color:#286475"/>
				<stop  offset="0.998" style="stop-color:#003848"/>
			</linearGradient>
			<path class="st12" d="M51.8,5.9c0.9,0,1.6,0.5,2,1.6L55.4,7c-0.8-0.9-2-1.5-3.5-1.5c-2.6,0-4.4,1.6-4.7,4l2.4-0.7
				C49.9,6.9,50.6,5.9,51.8,5.9z"/>
			<linearGradient id="SVGID_11_" gradientUnits="userSpaceOnUse" x1="58.2317" y1="1.274" x2="58.3915" y2="5.8506">
				<stop  offset="0" style="stop-color:#418091"/>
				<stop  offset="0.3643" style="stop-color:#286475"/>
				<stop  offset="0.998" style="stop-color:#003848"/>
			</linearGradient>
			<path class="st13" d="M57.2,5.7V6c0.2,0,0.3,0.1,0.5,0.3l1.8-0.6H57.2z"/>
		</g>
		<linearGradient id="SVGID_12_" gradientUnits="userSpaceOnUse" x1="58.2099" y1="0.771" x2="65.1592" y2="10.1779">
			<stop  offset="0" style="stop-color:#FF926F"/>
			<stop  offset="0.128" style="stop-color:#FF8C67"/>
			<stop  offset="0.2286" style="stop-color:#FF845D"/>
			<stop  offset="0.316" style="stop-color:#F9784F"/>
			<stop  offset="0.4804" style="stop-color:#EB582B"/>
			<stop  offset="0.5268" style="stop-color:#E64E1F"/>
			<stop  offset="0.679" style="stop-color:#C9441B"/>
			<stop  offset="0.998" style="stop-color:#812C11"/>
		</linearGradient>
		<path class="st14" d="M64.2,6.2c0.2,0.2,0.3,0.5,0.3,1.1v3.8l-3.3-3.9l-2.1,0.7l5.5,6.5h0.4V7c0-0.8,0.2-0.9,1-1V5.7H66L64.2,6.2z
			"/>
	</g>
</g>
</svg>
